<svg id="Layer_1" data-name="Layer 1" xmlns="http://www.w3.org/2000/svg" viewBox="0 0 189.39 127.3"><path d="M77.48,50.87h103.3a8.61,8.61,0,0,1,8.61,8.61v8.35a8.61,8.61,0,0,1-8.61,8.61H77.48A12.78,12.78,0,0,1,64.7,63.65v0A12.78,12.78,0,0,1,77.48,50.87Z" style="fill:#fff"/><path d="M12.78,0h168a8.61,8.61,0,0,1,8.61,8.61V17a8.61,8.61,0,0,1-8.61,8.61h-168A12.78,12.78,0,0,1,0,12.78v0A12.78,12.78,0,0,1,12.78,0Z" style="fill:#fff"/><path d="M12.78,101.74h168a8.61,8.61,0,0,1,8.61,8.61v8.35a8.61,8.61,0,0,1-8.61,8.61h-168A12.78,12.78,0,0,1,0,114.52v0a12.78,12.78,0,0,1,12.78-12.78Z" style="fill:#fff"/></svg>